<svg xmlns="http://www.w3.org/2000/svg" xmlns:xlink="http://www.w3.org/1999/xlink"><symbol id="menu"><path d="M0 5v2h18V5H0zm0 5v2h18v-2H0zM0 0v2h18V0H0z" fill="#FFF" fill-rule="evenodd"/></symbol><symbol id="more-vert"><path d="M2 16a2 2 0 1 0 0-4 2 2 0 0 0 0 4zm0-6a2 2 0 1 0 0-4 2 2 0 0 0 0 4zm0-6a2 2 0 1 0 0-4 2 2 0 0 0 0 4z" fill="#FFF" fill-rule="evenodd"/></symbol><symbol id="refresh"><path d="M14.337 7.108h1.73V.333L13.69 2.805A7.767 7.767 0 0 0 7.735 0C3.5 0 0 3.589 0 8s3.417 8 7.652 8c2.95 0 5.66-1.794 6.927-4.57l-1.741-.859c-.95 2.084-2.999 3.43-5.211 3.43-3.176 0-5.761-2.692-5.761-6s2.583-6 5.759-6c1.841 0 3.478.62 4.534 2.024L9.225 7.108h5.112z" fill="#FFF" fill-rule="evenodd"/></symbol><symbol id="temp-icon-left-arrow" viewBox="0 0 31.494 31.494"><path d="M10.273 5.01a1.117 1.117 0 0 1 1.587 1.57l-8.047 8.047h26.554c.62 0 1.127.492 1.127 1.11 0 .62-.508 1.128-1.127 1.128H3.813l8.047 8.032c.43.444.43 1.16 0 1.587a1.112 1.112 0 0 1-1.587 0L.32 16.532a1.12 1.12 0 0 1 0-1.57l9.953-9.953z" fill="#FFF"/></symbol><symbol id="temp-icon-right-arrow" viewBox="0 0 31.49 31.49"><path d="M21.205 5.007a1.117 1.117 0 0 0-1.587 1.57l8.047 8.048H1.11c-.618 0-1.11.493-1.11 1.112 0 .62.492 1.127 1.11 1.127h26.555l-8.047 8.032c-.43.444-.43 1.16 0 1.587.444.444 1.16.444 1.587 0l9.952-9.952a1.092 1.092 0 0 0 0-1.57l-9.952-9.95z" fill="#1E201D"/></symbol></svg>